<svg width="174" height="60" viewBox="0 0 174 60" fill="none" xmlns="http://www.w3.org/2000/svg">
    <path d="M71 55V16H75.2V51.4H86.18V55H71ZM112.883 23.5V47.5C112.883 50.18 112.023 52.26 110.303 53.74C108.623 55.18 106.083 55.9 102.683 55.9C99.3228 55.9 96.7828 55.18 95.0628 53.74C93.3428 52.26 92.4828 50.18 92.4828 47.5V23.5C92.4828 20.82 93.3228 18.76 95.0028 17.32C96.7228 15.84 99.2628 15.1 102.623 15.1C106.023 15.1 108.583 15.84 110.303 17.32C112.023 18.76 112.883 20.82 112.883 23.5ZM108.683 47.5V23.5C108.683 20.3 106.683 18.7 102.683 18.7C98.6828 18.7 96.6828 20.3 96.6828 23.5V47.5C96.6828 50.7 98.6828 52.3 102.683 52.3C106.683 52.3 108.683 50.7 108.683 47.5ZM131.949 38.8V35.2H142.869V47.5C142.869 50.18 142.049 52.26 140.409 53.74C138.769 55.18 136.309 55.9 133.029 55.9C129.749 55.9 127.269 55.18 125.589 53.74C123.909 52.26 123.069 50.18 123.069 47.5V23.5C123.069 20.82 123.889 18.76 125.529 17.32C127.169 15.84 129.629 15.1 132.909 15.1C136.189 15.1 138.669 15.84 140.349 17.32C142.029 18.76 142.869 20.82 142.869 23.5V26.8H138.669V23.5C138.669 20.3 136.769 18.7 132.969 18.7C129.169 18.7 127.269 20.3 127.269 23.5V47.5C127.269 50.7 129.169 52.3 132.969 52.3C136.769 52.3 138.669 50.7 138.669 47.5V38.8H131.949ZM173.049 47.5C173.049 53.1 169.669 55.9 162.909 55.9C156.149 55.9 152.769 53.1 152.769 47.5V42.4H156.969V47.74C156.969 49.18 157.469 50.3 158.469 51.1C159.469 51.9 160.949 52.3 162.909 52.3C164.869 52.3 166.349 51.9 167.349 51.1C168.349 50.3 168.849 49.22 168.849 47.86C168.849 46.46 168.689 45.36 168.369 44.56C168.089 43.72 167.489 42.84 166.569 41.92L156.009 31.6C154.769 30.36 153.909 29.16 153.429 28C152.989 26.8 152.769 25.3 152.769 23.5C152.769 20.82 153.589 18.76 155.229 17.32C156.909 15.84 159.429 15.1 162.789 15.1C169.229 15.1 172.449 17.9 172.449 23.5V28.6H168.249V23.26C168.249 21.82 167.769 20.7 166.809 19.9C165.889 19.1 164.489 18.7 162.609 18.7C160.729 18.7 159.309 19.1 158.349 19.9C157.429 20.7 156.969 21.8 156.969 23.2C156.969 24.6 157.109 25.7 157.389 26.5C157.669 27.3 158.289 28.14 159.249 29.02L169.989 39.34C171.149 40.62 171.949 41.86 172.389 43.06C172.829 44.22 173.049 45.7 173.049 47.5Z" fill="#00C548"/>
    <path d="M26.25 15.9375V0H2.8125C1.25391 0 0 1.25391 0 2.8125V57.1875C0 58.7461 1.25391 60 2.8125 60H42.1875C43.7461 60 45 58.7461 45 57.1875V18.75H29.0625C27.5156 18.75 26.25 17.4844 26.25 15.9375ZM33.75 43.5938C33.75 44.3672 33.1172 45 32.3438 45H12.6562C11.8828 45 11.25 44.3672 11.25 43.5938V42.6562C11.25 41.8828 11.8828 41.25 12.6562 41.25H32.3438C33.1172 41.25 33.75 41.8828 33.75 42.6562V43.5938ZM33.75 36.0938C33.75 36.8672 33.1172 37.5 32.3438 37.5H12.6562C11.8828 37.5 11.25 36.8672 11.25 36.0938V35.1562C11.25 34.3828 11.8828 33.75 12.6562 33.75H32.3438C33.1172 33.75 33.75 34.3828 33.75 35.1562V36.0938ZM33.75 27.6562V28.5938C33.75 29.3672 33.1172 30 32.3438 30H12.6562C11.8828 30 11.25 29.3672 11.25 28.5938V27.6562C11.25 26.8828 11.8828 26.25 12.6562 26.25H32.3438C33.1172 26.25 33.75 26.8828 33.75 27.6562ZM45 14.2852V15H30V0H30.7148C31.4648 0 32.1797 0.292969 32.707 0.820312L44.1797 12.3047C44.707 12.832 45 13.5469 45 14.2852Z" fill="#00C548"/>
</svg>
